<?xml version="1.0" encoding="UTF-8"?>
 <!DOCTYPE svg PUBLIC "-//W3C//DTD SVG 1.1//EN"
   "http://www.w3.org/Graphics/SVG/1.1/DTD/svg11.dtd">
 <svg xmlns="http://www.w3.org/2000/svg" version="1.1"
   xmlns:xlink="http://www.w3.org/1999/xlink" width="190.72536" height="54.37368">
  <path d="M 190.72536,54.360451 190.72536,0.00722298 132.90706,0.00722298 132.90706,54.360451 190.72536,54.360451 z M 177.55103,15.616721 C 173.0961,13.108797 168.64117,11.807929 164.47141,11.807929 160.01548,11.807929 156.31935,13.201646 153.47569,15.989086 150.53831,18.682711 149.02076,22.028233 149.02076,26.209396 149.02076,30.203886 150.53731,33.641279 153.38097,36.42873 156.41406,39.030476 160.01548,40.330375 164.37569,40.330375 169.02007,40.330375 173.5707,38.936658 178.02462,36.150187 L 178.02462,42.004592 C 173.85387,44.233965 169.20951,45.349141 164.09053,45.349141 159.73133,45.349141 156.1289,44.513494 153.0958,42.841226 150.15743,41.075133 147.78838,38.751933 145.98667,35.871627 144.28068,32.712789 143.33246,29.554927 143.33246,26.209396 143.33246,20.634515 145.32362,16.081952 149.39866,12.365027 153.37997,8.6490762 158.30949,6.697283 164.09053,6.697283 168.2623,6.697283 172.71621,7.719614 177.55002,9.8561234 L 177.55002,15.616721 177.55088,15.616721 177.55103,15.616721 z" />
  <path d="M 57.835526,0.00367621 4.8983e-8,0.00367621 4.8983e-8,54.37368 57.835526,54.37368 57.835526,0.00367621 57.835526,0.00367621 z M 17.634897,45.637252 17.634897,8.0899503 27.685055,8.0899503 C 30.908446,8.0899503 33.279114,8.4614688 35.080304,9.2983585 36.881491,10.135231 38.303694,11.342652 39.157415,12.82969 40.104884,14.223835 40.579615,15.896628 40.674363,17.848044 40.579614,21.566115 38.683681,24.168666 34.701315,25.841456 37.640467,26.305837 39.820642,27.421353 41.433335,29.187032 43.045031,30.85981 43.898751,32.996021 43.898751,35.413775 43.898751,37.365211 43.425014,39.131851 42.3818,40.526011 41.338585,42.104937 39.916384,43.314314 38.02045,44.24407 36.02977,45.173837 33.564352,45.638227 30.625203,45.638227 L 17.634897,45.638227 17.634897,45.637364 17.634897,45.637252 z" />
  <path d="M 27.874548,12.822105 23.134209,12.822105 23.134209,24.157893 26.832332,24.157893 C 29.676736,24.157893 31.762166,23.599806 32.994871,22.578424 34.226583,21.463222 34.890809,19.976601 34.890809,18.304283 34.890809,14.680123 32.52014,12.822105 27.874548,12.822105 L 27.874548,12.822105 z" />
  <path d="M 28.254534,28.98816 23.135207,28.98816 23.135207,40.789191 28.538774,40.789191 C 31.383178,40.789191 33.468608,40.604463 34.701315,40.232076 35.74453,39.767809 36.597249,39.116873 37.260479,38.187371 37.829961,37.166003 38.114202,36.142673 38.208947,34.934608 38.114198,33.634678 37.734213,32.61331 37.165733,31.868536 36.501506,30.847157 35.554034,30.104341 34.32133,29.731951 32.994871,29.17485 30.908446,28.98816 28.254534,28.98816 L 28.254534,28.98816 z" />
  <path d="M 124.27896,0 66.459165,0 66.459165,54.361943 124.27896,54.361943 124.27896,0 124.27896,0 z M 84.089266,45.626811 84.089266,8.0850775 94.136688,8.0850775 C 97.3592,8.0850775 99.729225,8.4565385 101.52992,9.2933044 103.33062,10.130056 104.75244,11.337296 105.60593,12.824113 106.55314,14.218054 107.02774,15.890593 107.12246,17.841722 107.02779,21.559243 105.13232,24.161408 101.15104,25.833948 104.08939,26.298263 106.26898,27.413613 107.88123,29.179033 109.49249,30.85156 110.34597,32.987455 110.34597,35.404855 110.34597,37.355995 109.87236,39.122376 108.82944,40.516328 107.7865,42.095018 106.36469,43.304217 104.46928,44.233835 102.47914,45.163461 100.01439,45.627786 97.076034,45.627786 L 84.089266,45.627786 84.089266,45.626922 84.089266,45.626811 z" />
  <path d="M 94.361526,12.829633 89.621185,12.829633 89.621185,24.165421 93.31931,24.165421 C 96.163714,24.165421 98.249142,23.607334 99.481849,22.585952 100.71356,21.47075 101.37779,19.984128 101.37779,18.311811 101.37779,14.687651 99.007117,12.829633 94.361526,12.829633 L 94.361526,12.829633 z" />
  <path d="M 94.74151,28.995689 89.622184,28.995689 89.622184,40.796719 95.025752,40.796719 C 97.870156,40.796719 99.955584,40.61199 101.18829,40.239604 102.23151,39.775337 103.08423,39.124401 103.74746,38.194899 104.31694,37.173531 104.60118,36.150202 104.69593,34.942136 104.60116,33.642205 104.22119,32.620837 103.65271,31.876063 102.98848,30.854685 102.04102,30.111869 100.80831,29.739479 99.481849,29.182378 97.395422,28.995689 94.74151,28.995689 z" />
 </svg>