<?xml version="1.0" encoding="UTF-8" standalone="no"?>
<svg
   xmlns:dc="http://purl.org/dc/elements/1.1/"
   xmlns:cc="http://creativecommons.org/ns#"
   xmlns:rdf="http://www.w3.org/1999/02/22-rdf-syntax-ns#"
   xmlns:svg="http://www.w3.org/2000/svg"
   xmlns="http://www.w3.org/2000/svg"
   xmlns:sodipodi="http://sodipodi.sourceforge.net/DTD/sodipodi-0.dtd"
   xmlns:inkscape="http://www.inkscape.org/namespaces/inkscape"
   width="600.00067"
   height="303.34299"
   viewBox="0 0 480.00054 242.67439"
   version="1.1"
   id="svg2"
   inkscape:version="0.47 r22583"
   sodipodi:docname="NewPicture699.svg">
  <metadata
     id="metadata37">
    <rdf:RDF>
      <cc:Work
         rdf:about="">
        <dc:format>image/svg+xml</dc:format>
        <dc:type
           rdf:resource="http://purl.org/dc/dcmitype/StillImage" />
      </cc:Work>
    </rdf:RDF>
  </metadata>
  <defs
     id="defs35">
    <inkscape:perspective
       sodipodi:type="inkscape:persp3d"
       inkscape:vp_x="0 : 395.625 : 1"
       inkscape:vp_y="0 : 1000 : 0"
       inkscape:vp_z="1458.75 : 395.625 : 1"
       inkscape:persp3d-origin="729.375 : 263.75 : 1"
       id="perspective39" />
  </defs>
  <sodipodi:namedview
     pagecolor="#ffffff"
     bordercolor="#666666"
     borderopacity="1"
     objecttolerance="10"
     gridtolerance="10"
     guidetolerance="10"
     inkscape:pageopacity="0"
     inkscape:pageshadow="2"
     inkscape:window-width="1680"
     inkscape:window-height="988"
     id="namedview33"
     showgrid="false"
     inkscape:zoom="0.44331556"
     inkscape:cx="-262.69687"
     inkscape:cy="197.53933"
     inkscape:window-x="-8"
     inkscape:window-y="-8"
     inkscape:window-maximized="1"
     inkscape:current-layer="svg2" />
  <g
     id="#36579fff"
     transform="translate(-337.09764,-202.3599)" />
  <g
     id="#003888ff"
     transform="matrix(0.42618257,0,0,0.42618257,-5.948794,-16.616858)">
    <path
       d="m 28.32,39.45 c 1.54,-0.33 3.12,-0.42 4.68,-0.46 363,0.03 725.99,-0.01 1088.99,0.02 6.66,-0.03 13.14,3.93 16.11,9.9 2.7,4.92 2.03,10.69 2.08,16.07 -0.01,171.36 0,342.71 0,514.06 -0.24,5.9 0.83,12.08 -1.34,17.74 -2.66,7.18 -10.22,11.92 -17.81,11.59 -360.02,-0.01 -720.05,0 -1080.08,-0.01 -5.75,-0.12 -11.95,0.79 -17.19,-2.13 -6.22,-3.27 -10.04,-10.19 -9.77,-17.18 0.02,-174.68 0,-349.37 0.01,-524.06 0.07,-4.62 -0.5,-9.42 1.13,-13.86 1.98,-5.82 7.18,-10.41 13.19,-11.68 m 279.23,72.27 c -6.31,1.08 -12.25,4.65 -15.72,10.09 -5.65,8.59 -5.91,19.86 -3.02,29.46 2.33,8.31 10.16,14.17 18.55,15.3 5.5,0.55 11.33,0.72 16.48,-1.64 5.67,-2.33 11.01,-7.49 10.83,-14.03 -0.81,-2.36 -3.17,-4.02 -5.68,-3.9 -4.2,-0.41 -5.68,4.33 -8.19,6.75 -4.45,5.43 -13.45,3.93 -17.57,-1.14 -3.99,-4.85 -4.17,-11.55 -3.64,-17.51 0.69,-5.78 4.2,-11.87 10.15,-13.44 3.13,-1.1 6.61,-0.45 9.48,1.09 3.28,1.94 4.28,6.41 7.93,7.83 2.55,0.54 6.06,0.06 7.01,-2.79 1.44,-3.31 -0.59,-6.8 -2.65,-9.34 -6.04,-6.4 -15.55,-8.16 -23.96,-6.73 m 102.36,3.23 c -5.37,13.7 -10.37,27.54 -15.68,41.26 -0.88,2.31 -1.68,4.87 -0.93,7.34 1.51,3.9 7.84,4.36 10.21,1.11 1.52,-3.23 2.49,-6.68 3.71,-10.02 6.4,0.02 12.81,0.06 19.21,-0.02 1.46,3.29 2.23,6.86 3.86,10.07 2.61,3.44 8.92,2.42 10.45,-1.64 0.53,-2.61 -0.46,-5.15 -1.34,-7.56 -4.94,-13.45 -9.61,-27.01 -14.63,-40.43 -0.99,-2.79 -4.1,-3.73 -6.8,-3.54 -2.94,-0.11 -7.11,-0.04 -8.06,3.43 m 309.19,1.95 c -0.25,13.35 -0.01,26.7 -0.12,40.05 0.03,2.19 -0.15,4.42 0.32,6.58 1.87,4.98 11.25,4.13 11.32,-1.58 0.11,-10.57 0.02,-21.14 0.02,-31.7 7.17,11.21 14.16,22.55 21.4,33.72 1.92,3.26 6.23,3.05 9.45,2.39 2.79,-0.75 4.18,-3.69 4.16,-6.41 0.04,-13.98 -0.02,-27.97 0.02,-41.96 0.15,-2.26 -0.53,-4.96 -2.85,-5.85 -3.15,-1.57 -8.69,-0.39 -8.74,3.8 -0.26,11.03 0.1,22.08 -0.18,33.11 -6.4,-10.82 -13.28,-21.36 -19.76,-32.14 -1.27,-2.07 -2.62,-4.49 -5.19,-5.05 -3.77,-1.12 -9.86,0.18 -9.85,5.04 m 123.82,-0.11 c -5.04,13.57 -10.25,27.09 -15.33,40.66 -0.72,2.39 -1.19,5.33 0.33,7.52 2.27,2.45 6.78,2.38 9.15,0.1 1.72,-3.31 2.64,-6.97 4.05,-10.42 6.39,0.01 12.78,0.02 19.18,-0.01 1.16,2.94 2.02,5.99 3.24,8.91 1.74,4.41 8.96,4.18 10.79,-0.06 0.9,-2.24 0.06,-4.71 -0.71,-6.86 -5.05,-13.78 -9.84,-27.65 -14.97,-41.4 -1.56,-4.34 -6.92,-3.88 -10.64,-3.57 -2.9,0.02 -4.33,2.73 -5.09,5.13 M 505.2,113.37 c -2.56,0.99 -2.97,4.22 -2.88,6.62 0.13,13.63 -0.15,27.28 0.13,40.9 0.37,3.7 4.29,5.19 7.55,4.92 9.47,-0.25 19.76,1.41 28.37,-3.49 7.2,-4.09 10.69,-12.4 11.1,-20.37 0.47,-8.62 -0.96,-18.57 -8.07,-24.35 -6.53,-5.36 -15.43,-5.24 -23.41,-5.03 -4.25,0.28 -8.73,-0.75 -12.79,0.8 m 108.41,6.68 c -0.11,12.29 0,24.6 -0.05,36.9 0.16,2.53 0.14,5.53 2.19,7.37 2.01,1.68 4.79,1.4 7.24,1.53 8.68,-0.02 17.35,0.02 26.03,-0.02 2.31,-0.05 5.03,-0.16 6.48,-2.26 0.69,-1.74 0.62,-3.71 0.04,-5.47 -1.01,-2.08 -3.59,-2.08 -5.57,-2.11 -8.03,0 -16.07,0.02 -24.1,0 -0.05,-4.33 -0.03,-8.66 -0.02,-12.99 7.73,-0.11 15.48,0.22 23.2,-0.14 3.2,-0.26 3.43,-4.33 2.66,-6.69 -0.78,-2.32 -3.69,-2.27 -5.67,-2.55 -6.74,-0.16 -13.48,0.03 -20.22,-0.08 0.03,-3.7 0.03,-7.4 0.01,-11.1 7.38,-0.01 14.76,-0.03 22.15,0.02 1.9,-0.02 3.92,0.01 5.66,-0.92 2.24,-1.56 2.34,-4.99 1.01,-7.16 -1.55,-2.05 -4.43,-1.78 -6.69,-1.84 -9.7,0.12 -19.41,-0.11 -29.1,0.11 -3.77,0.23 -5.36,4.1 -5.25,7.4 m -431.04,95.67 c -20.88,2.88 -40.49,13.74 -54.15,29.77 -13.88,16.03 -21.52,37.29 -21.1,58.49 0.15,17.43 5.77,34.73 15.76,49 11.95,17.32 30.45,29.88 50.84,34.94 11.45,2.95 23.35,2.83 35.09,2.74 35.5,-0.36 71.01,-0.25 106.51,-0.17 16.55,0.04 31.47,14.86 31.09,31.5 0.76,16.38 -13.34,31.36 -29.6,32.15 -64.02,0.05 -128.04,-0.01 -192.06,0.03 -8.83,-0.33 -17.09,7.02 -17.57,15.89 -0.12,7.33 0.02,14.67 -0.06,22.01 -0.36,6.65 3.41,13.42 9.5,16.27 4.02,2.29 8.78,1.56 13.2,1.66 59.67,0 119.33,0 179,0 7.03,-0.03 14.13,0.3 21.06,-1.15 26.56,-4.38 50.46,-21.97 62.72,-45.91 9.13,-17.37 12.07,-37.84 8.37,-57.1 -3.75,-20.03 -14.78,-38.66 -30.64,-51.48 -15.75,-12.93 -36.12,-20.14 -56.51,-19.8 -39.03,0.03 -78.05,-0.01 -117.07,0.02 -4.44,0.02 -8.95,-0.5 -13.09,-2.16 -12.25,-4.57 -21.11,-17.26 -20.46,-30.43 -0.21,-16.34 14.36,-30.91 30.61,-31.15 62.01,0.01 124.02,-0.01 186.02,0.01 3.3,-0.07 6.69,0.3 9.91,-0.63 7.13,-1.85 12.75,-8.73 12.73,-16.17 -0.04,-7.7 0.03,-15.39 -0.03,-23.09 -0.3,-8.53 -7.97,-16.18 -16.6,-15.96 -64.33,0 -128.67,0 -193.01,0 -3.5,0.02 -7.01,0.16 -10.46,0.72 m 248.01,7.87 c -2.8,4.62 -3.58,10.13 -3.43,15.45 0.02,82.67 0,165.33 0.01,248 -0.19,7.45 2.23,15.58 8.44,20.17 3.23,2.56 7.44,3.17 11.44,3.22 53.33,0 106.65,-0.01 159.98,0.01 5.66,0.21 11.3,-0.72 16.98,-0.44 27.34,0.01 54.68,-0.01 82.03,0.01 9.08,0.44 16.74,-8.16 16.63,-16.99 -0.06,-7.69 0.13,-15.39 -0.09,-23.08 -0.6,-8.38 -8.08,-15.53 -16.5,-15.6 -74.35,0.01 -148.71,0 -223.07,0 0,-21.23 0,-42.45 0,-63.68 64.03,-0.02 128.06,0.03 192.09,-0.02 6.77,-0.01 13.33,-4.24 15.99,-10.5 2.26,-5.44 1.06,-11.44 1.35,-17.16 -0.34,-6.21 1.08,-12.83 -1.68,-18.66 -2.68,-6.04 -9.25,-9.81 -15.76,-9.76 -63.99,0.02 -127.98,-0.01 -191.97,0.02 -0.04,-21.25 -0.02,-42.49 -0.02,-63.73 74.03,-0.01 148.07,-0.01 222.1,0 9.13,0.4 17.48,-7.64 17.55,-16.75 0.03,-7.37 0,-14.75 0.02,-22.12 0.06,-8.84 -7.7,-17.15 -16.67,-16.97 -87,-0.03 -173.99,0.01 -260.98,-0.02 -6.03,-0.4 -11.53,3.55 -14.44,8.6 M 747,231.94 c 0,87.02 0,174.03 0,261.05 -0.26,6.44 3.7,12.68 9.44,15.49 4.83,2.34 10.38,1.92 15.6,1.95 6.03,-0.17 12.16,0.52 18.11,-0.78 7.36,-1.78 12.83,-9.05 12.7,-16.59 -0.01,-74.07 -0.01,-148.14 0,-222.21 50.73,-0.01 101.46,0 152.19,-0.01 14.03,0.12 27.05,10.58 30.3,24.22 2.94,11.01 -0.89,23.4 -9.34,31 -48.62,42.74 -97.26,85.46 -145.88,128.19 -12.64,11.21 -13.62,32.51 -2.3,44.97 6.4,7.57 16.33,11.32 26.11,11.2 56.35,0.03 112.7,0 169.05,0.01 4.54,0.03 9.16,0.19 13.59,-1.03 6.93,-2.25 11.82,-9.18 11.82,-16.45 0.04,-7.36 0.14,-14.73 -0.05,-22.08 -0.22,-8.59 -7.64,-16.31 -16.28,-16.52 -17.02,-0.16 -34.01,0.71 -51.03,0.81 -23.68,-0.04 -47.33,0.97 -71.01,1.03 32.99,-28.05 65.81,-56.31 98.78,-84.38 9.65,-7.78 17.94,-17.39 23.56,-28.47 13.41,-25.27 13.14,-57.21 -0.55,-82.3 -14.36,-27.21 -43.98,-45.66 -74.8,-46.02 C 892.67,214.98 828.34,215.01 764,215 c -9.04,-0.35 -17.35,7.89 -17,16.94 z"
       id="path6"
       style="fill:#003888" />
    <path
       d="m 514.85,122.85 c 5.68,0.47 12.15,-1.48 17.1,2.21 4.33,3.58 5.07,9.72 5.06,15 -0.27,5.78 -2.26,12.69 -8.3,14.81 -4.48,1.2 -9.19,0.5 -13.77,0.75 -0.23,-10.92 -0.04,-21.85 -0.09,-32.77 z"
       id="path8"
       style="fill:#003888" />
    <path
       d="m 417.06,125.78 c 2.16,6.58 4.13,13.22 6.34,19.79 -4.33,0 -8.65,0 -12.97,0 2.29,-6.57 4.45,-13.18 6.63,-19.79 z"
       id="path10"
       style="fill:#003888" />
    <path
       d="m 850.9,125.89 c 2.1,6.56 4.16,13.15 6.31,19.7 -4.32,-0.03 -8.64,-0.06 -12.95,0.04 2.28,-6.56 4.39,-13.17 6.64,-19.74 z"
       id="path12"
       style="fill:#003888" />
  </g>
  <g
     id="#f8ed78ff"
     transform="matrix(0.42618257,0,0,0.42618257,-5.948794,-16.616858)">
    <path
       d="m 307.55,111.72 c 8.41,-1.43 17.92,0.33 23.96,6.73 2.06,2.54 4.09,6.03 2.65,9.34 -0.95,2.85 -4.46,3.33 -7.01,2.79 -3.65,-1.42 -4.65,-5.89 -7.93,-7.83 -2.87,-1.54 -6.35,-2.19 -9.48,-1.09 -5.95,1.57 -9.46,7.66 -10.15,13.44 -0.53,5.96 -0.35,12.66 3.64,17.51 4.12,5.07 13.12,6.57 17.57,1.14 2.51,-2.42 3.99,-7.16 8.19,-6.75 2.51,-0.12 4.87,1.54 5.68,3.9 0.18,6.54 -5.16,11.7 -10.83,14.03 -5.15,2.36 -10.98,2.19 -16.48,1.64 -8.39,-1.13 -16.22,-6.99 -18.55,-15.3 -2.89,-9.6 -2.63,-20.87 3.02,-29.46 3.47,-5.44 9.41,-9.01 15.72,-10.09 z"
       id="path15"
       style="fill:#f8ed78" />
    <path
       d="m 409.91,114.95 c 0.95,-3.47 5.12,-3.54 8.06,-3.43 2.7,-0.19 5.81,0.75 6.8,3.54 5.02,13.42 9.69,26.98 14.63,40.43 0.88,2.41 1.87,4.95 1.34,7.56 -1.53,4.06 -7.84,5.08 -10.45,1.64 -1.63,-3.21 -2.4,-6.78 -3.86,-10.07 -6.4,0.08 -12.81,0.04 -19.21,0.02 -1.22,3.34 -2.19,6.79 -3.71,10.02 -2.37,3.25 -8.7,2.79 -10.21,-1.11 -0.75,-2.47 0.05,-5.03 0.93,-7.34 5.31,-13.72 10.31,-27.56 15.68,-41.26 m 7.15,10.83 c -2.18,6.61 -4.34,13.22 -6.63,19.79 4.32,0 8.64,0 12.97,0 -2.21,-6.57 -4.18,-13.21 -6.34,-19.79 z"
       id="path17"
       style="fill:#f8ed78" />
    <path
       d="m 719.1,116.9 c -0.01,-4.86 6.08,-6.16 9.85,-5.04 2.57,0.56 3.92,2.98 5.19,5.05 6.48,10.78 13.36,21.32 19.76,32.14 0.28,-11.03 -0.08,-22.08 0.18,-33.11 0.05,-4.19 5.59,-5.37 8.74,-3.8 2.32,0.89 3,3.59 2.85,5.85 -0.04,13.99 0.02,27.98 -0.02,41.96 0.02,2.72 -1.37,5.66 -4.16,6.41 -3.22,0.66 -7.53,0.87 -9.45,-2.39 -7.24,-11.17 -14.23,-22.51 -21.4,-33.72 0,10.56 0.09,21.13 -0.02,31.7 -0.07,5.71 -9.45,6.56 -11.32,1.58 -0.47,-2.16 -0.29,-4.39 -0.32,-6.58 0.11,-13.35 -0.13,-26.7 0.12,-40.05 z"
       id="path19"
       style="fill:#f8ed78" />
    <path
       d="m 842.92,116.79 c 0.76,-2.4 2.19,-5.11 5.09,-5.13 3.72,-0.31 9.08,-0.77 10.64,3.57 5.13,13.75 9.92,27.62 14.97,41.4 0.77,2.15 1.61,4.62 0.71,6.86 -1.83,4.24 -9.05,4.47 -10.79,0.06 -1.22,-2.92 -2.08,-5.97 -3.24,-8.91 -6.4,0.03 -12.79,0.02 -19.18,0.01 -1.41,3.45 -2.33,7.11 -4.05,10.42 -2.37,2.28 -6.88,2.35 -9.15,-0.1 -1.52,-2.19 -1.05,-5.13 -0.33,-7.52 5.08,-13.57 10.29,-27.09 15.33,-40.66 m 7.98,9.1 c -2.25,6.57 -4.36,13.18 -6.64,19.74 4.31,-0.1 8.63,-0.07 12.95,-0.04 -2.15,-6.55 -4.21,-13.14 -6.31,-19.7 z"
       id="path21"
       style="fill:#f8ed78" />
    <path
       d="m 505.2,113.37 c 4.06,-1.55 8.54,-0.52 12.79,-0.8 7.98,-0.21 16.88,-0.33 23.41,5.03 7.11,5.78 8.54,15.73 8.07,24.35 -0.41,7.97 -3.9,16.28 -11.1,20.37 -8.61,4.9 -18.9,3.24 -28.37,3.49 -3.26,0.27 -7.18,-1.22 -7.55,-4.92 -0.28,-13.62 0,-27.27 -0.13,-40.9 -0.09,-2.4 0.32,-5.63 2.88,-6.62 m 9.65,9.48 c 0.05,10.92 -0.14,21.85 0.09,32.77 4.58,-0.25 9.29,0.45 13.77,-0.75 6.04,-2.12 8.03,-9.03 8.3,-14.81 0.01,-5.28 -0.73,-11.42 -5.06,-15 -4.95,-3.69 -11.42,-1.74 -17.1,-2.21 z"
       id="path23"
       style="fill:#f8ed78" />
    <path
       d="m 613.61,120.05 c -0.11,-3.3 1.48,-7.17 5.25,-7.4 9.69,-0.22 19.4,0.01 29.1,-0.11 2.26,0.06 5.14,-0.21 6.69,1.84 1.33,2.17 1.23,5.6 -1.01,7.16 -1.74,0.93 -3.76,0.9 -5.66,0.92 -7.39,-0.05 -14.77,-0.03 -22.15,-0.02 0.02,3.7 0.02,7.4 -0.01,11.1 6.74,0.11 13.48,-0.08 20.22,0.08 1.98,0.28 4.89,0.23 5.67,2.55 0.77,2.36 0.54,6.43 -2.66,6.69 -7.72,0.36 -15.47,0.03 -23.2,0.14 -0.01,4.33 -0.03,8.66 0.02,12.99 8.03,0.02 16.07,0 24.1,0 1.98,0.03 4.56,0.03 5.57,2.11 0.58,1.76 0.65,3.73 -0.04,5.47 -1.45,2.1 -4.17,2.21 -6.48,2.26 -8.68,0.04 -17.35,0 -26.03,0.02 -2.45,-0.13 -5.23,0.15 -7.24,-1.53 -2.05,-1.84 -2.03,-4.84 -2.19,-7.37 0.05,-12.3 -0.06,-24.61 0.05,-36.9 z"
       id="path25"
       style="fill:#f8ed78" />
    <path
       d="m 182.57,215.72 c 3.45,-0.56 6.96,-0.7 10.46,-0.72 64.34,0 128.68,0 193.01,0 8.63,-0.22 16.3,7.43 16.6,15.96 0.06,7.7 -0.01,15.39 0.03,23.09 0.02,7.44 -5.6,14.32 -12.73,16.17 -3.22,0.93 -6.61,0.56 -9.91,0.63 -62,-0.02 -124.01,0 -186.02,-0.01 -16.25,0.24 -30.82,14.81 -30.61,31.15 -0.65,13.17 8.21,25.86 20.46,30.43 4.14,1.66 8.65,2.18 13.09,2.16 39.02,-0.03 78.04,0.01 117.07,-0.02 20.39,-0.34 40.76,6.87 56.51,19.8 15.86,12.82 26.89,31.45 30.64,51.48 3.7,19.26 0.76,39.73 -8.37,57.1 -12.26,23.94 -36.16,41.53 -62.72,45.91 -6.93,1.45 -14.03,1.12 -21.06,1.15 -59.67,0 -119.33,0 -179,0 -4.42,-0.1 -9.18,0.63 -13.2,-1.66 -6.09,-2.85 -9.86,-9.62 -9.5,-16.27 0.08,-7.34 -0.06,-14.68 0.06,-22.01 0.48,-8.87 8.74,-16.22 17.57,-15.89 64.02,-0.04 128.04,0.02 192.06,-0.03 16.26,-0.79 30.36,-15.77 29.6,-32.15 0.38,-16.64 -14.54,-31.46 -31.09,-31.5 -35.5,-0.08 -71.01,-0.19 -106.51,0.17 -11.74,0.09 -23.64,0.21 -35.09,-2.74 -20.39,-5.06 -38.89,-17.62 -50.84,-34.94 -9.99,-14.27 -15.61,-31.57 -15.76,-49 -0.42,-21.2 7.22,-42.46 21.1,-58.49 13.66,-16.03 33.27,-26.89 54.15,-29.77 z"
       id="path27"
       style="fill:#f8ed78" />
    <path
       d="m 430.58,223.59 c 2.91,-5.05 8.41,-9 14.44,-8.6 86.99,0.03 173.98,-0.01 260.98,0.02 8.97,-0.18 16.73,8.13 16.67,16.97 -0.02,7.37 0.01,14.75 -0.02,22.12 -0.07,9.11 -8.42,17.15 -17.55,16.75 -74.03,-0.01 -148.07,-0.01 -222.1,0 0,21.24 -0.02,42.48 0.02,63.73 63.99,-0.03 127.98,0 191.97,-0.02 6.51,-0.05 13.08,3.72 15.76,9.76 2.76,5.83 1.34,12.45 1.68,18.66 -0.29,5.72 0.91,11.72 -1.35,17.16 -2.66,6.26 -9.22,10.49 -15.99,10.5 -64.03,0.05 -128.06,0 -192.09,0.02 0,21.23 0,42.45 0,63.68 74.36,0 148.72,0.01 223.07,0 8.42,0.07 15.9,7.22 16.5,15.6 0.22,7.69 0.03,15.39 0.09,23.08 0.11,8.83 -7.55,17.43 -16.63,16.99 -27.35,-0.02 -54.69,0 -82.03,-0.01 -5.68,-0.28 -11.32,0.65 -16.98,0.44 -53.33,-0.02 -106.65,-0.01 -159.98,-0.01 -4,-0.05 -8.21,-0.66 -11.44,-3.22 -6.21,-4.59 -8.63,-12.72 -8.44,-20.17 -0.01,-82.67 0.01,-165.33 -0.01,-248 -0.15,-5.32 0.63,-10.83 3.43,-15.45 z"
       id="path29"
       style="fill:#f8ed78" />
    <path
       d="m 747,231.94 c -0.35,-9.05 7.96,-17.29 17,-16.94 64.34,0.01 128.67,-0.02 193.01,0.02 30.82,0.36 60.44,18.81 74.8,46.02 13.69,25.09 13.96,57.03 0.55,82.3 -5.62,11.08 -13.91,20.69 -23.56,28.47 -32.97,28.07 -65.79,56.33 -98.78,84.38 23.68,-0.06 47.33,-1.07 71.01,-1.03 17.02,-0.1 34.01,-0.97 51.03,-0.81 8.64,0.21 16.06,7.93 16.28,16.52 0.19,7.35 0.09,14.72 0.05,22.08 0,7.27 -4.89,14.2 -11.82,16.45 -4.43,1.22 -9.05,1.06 -13.59,1.03 -56.35,-0.01 -112.7,0.02 -169.05,-0.01 -9.78,0.12 -19.71,-3.63 -26.11,-11.2 -11.32,-12.46 -10.34,-33.76 2.3,-44.97 48.62,-42.73 97.26,-85.45 145.88,-128.19 8.45,-7.6 12.28,-19.99 9.34,-31 -3.25,-13.64 -16.27,-24.1 -30.3,-24.22 -50.73,0.01 -101.46,0 -152.19,0.01 -0.01,74.07 -0.01,148.14 0,222.21 0.13,7.54 -5.34,14.81 -12.7,16.59 -5.95,1.3 -12.08,0.61 -18.11,0.78 -5.22,-0.03 -10.77,0.39 -15.6,-1.95 -5.74,-2.81 -9.7,-9.05 -9.44,-15.49 0,-87.02 0,-174.03 0,-261.05 z"
       id="path31"
       style="fill:#f8ed78" />
  </g>
</svg>
