<?xml version="1.0" encoding="UTF-8" standalone="no"?>
<!-- Created with Inkscape (http://www.inkscape.org/) -->

<svg
   xmlns:dc="http://purl.org/dc/elements/1.1/"
   xmlns:cc="http://creativecommons.org/ns#"
   xmlns:rdf="http://www.w3.org/1999/02/22-rdf-syntax-ns#"
   xmlns:svg="http://www.w3.org/2000/svg"
   xmlns="http://www.w3.org/2000/svg"
   xmlns:xlink="http://www.w3.org/1999/xlink"
   xmlns:sodipodi="http://sodipodi.sourceforge.net/DTD/sodipodi-0.dtd"
   xmlns:inkscape="http://www.inkscape.org/namespaces/inkscape"
   version="1.0"
   width="110"
   height="90"
   id="svg5098"
   inkscape:version="0.47 r22583"
   sodipodi:docname="Ràdio 4 RNE Spain.svg">
  <metadata
     id="metadata11">
    <rdf:RDF>
      <cc:Work
         rdf:about="">
        <dc:format>image/svg+xml</dc:format>
        <dc:type
           rdf:resource="http://purl.org/dc/dcmitype/StillImage" />
        <dc:title></dc:title>
      </cc:Work>
    </rdf:RDF>
  </metadata>
  <sodipodi:namedview
     pagecolor="#ffffff"
     bordercolor="#666666"
     borderopacity="1"
     objecttolerance="10"
     gridtolerance="10"
     guidetolerance="10"
     inkscape:pageopacity="0"
     inkscape:pageshadow="2"
     inkscape:window-width="1280"
     inkscape:window-height="750"
     id="namedview9"
     showgrid="false"
     inkscape:zoom="3.6103509"
     inkscape:cx="92.470954"
     inkscape:cy="70.902661"
     inkscape:window-x="-4"
     inkscape:window-y="-4"
     inkscape:window-maximized="1"
     inkscape:current-layer="svg5098" />
  <defs
     id="defs5100">
    <inkscape:perspective
       sodipodi:type="inkscape:persp3d"
       inkscape:vp_x="0 : 30 : 1"
       inkscape:vp_y="0 : 1000 : 0"
       inkscape:vp_z="110 : 30 : 1"
       inkscape:persp3d-origin="55 : 20 : 1"
       id="perspective13" />
    <linearGradient
       id="linearGradient3685">
      <stop
         id="stop3687"
         style="stop-color:#9a213d;stop-opacity:1"
         offset="0" />
      <stop
         id="stop3689"
         style="stop-color:#f20408;stop-opacity:1"
         offset="1" />
    </linearGradient>
    <linearGradient
       x1="453.98703"
       y1="398.54263"
       x2="564.04407"
       y2="338.61118"
       id="linearGradient3665"
       xlink:href="#linearGradient3685"
       gradientUnits="userSpaceOnUse"
       gradientTransform="translate(-453.98702,-308.55997)" />
    <inkscape:perspective
       id="perspective2827"
       inkscape:persp3d-origin="0.5 : 0.33333333 : 1"
       inkscape:vp_z="1 : 0.5 : 1"
       inkscape:vp_y="0 : 1000 : 0"
       inkscape:vp_x="0 : 0.5 : 1"
       sodipodi:type="inkscape:persp3d" />
    <linearGradient
       inkscape:collect="always"
       xlink:href="#linearGradient3685"
       id="linearGradient3729"
       x1="-243.82657"
       y1="-153.93254"
       x2="37.282543"
       y2="-153.93254"
       gradientUnits="userSpaceOnUse" />
    <linearGradient
       inkscape:collect="always"
       xlink:href="#linearGradient3685"
       id="linearGradient3768"
       gradientUnits="userSpaceOnUse"
       x1="-243.82657"
       y1="-153.93254"
       x2="37.282543"
       y2="-153.93254" />
    <linearGradient
       inkscape:collect="always"
       xlink:href="#linearGradient3685"
       id="linearGradient3770"
       gradientUnits="userSpaceOnUse"
       x1="-243.82657"
       y1="-153.93254"
       x2="37.282543"
       y2="-153.93254" />
    <linearGradient
       inkscape:collect="always"
       xlink:href="#linearGradient3685"
       id="linearGradient3772"
       gradientUnits="userSpaceOnUse"
       x1="-243.82657"
       y1="-153.93254"
       x2="37.282543"
       y2="-153.93254" />
    <linearGradient
       inkscape:collect="always"
       xlink:href="#linearGradient3685"
       id="linearGradient3774"
       gradientUnits="userSpaceOnUse"
       x1="-243.82657"
       y1="-153.93254"
       x2="37.282543"
       y2="-153.93254" />
    <linearGradient
       inkscape:collect="always"
       xlink:href="#linearGradient3685"
       id="linearGradient3801"
       x1="-243.82657"
       y1="-154.52367"
       x2="336.36136"
       y2="-154.52367"
       gradientUnits="userSpaceOnUse" />
    <linearGradient
       inkscape:collect="always"
       xlink:href="#linearGradient3685"
       id="linearGradient3803"
       gradientUnits="userSpaceOnUse"
       x1="-243.82657"
       y1="-154.52367"
       x2="336.36136"
       y2="-154.52367" />
    <linearGradient
       inkscape:collect="always"
       xlink:href="#linearGradient3685"
       id="linearGradient3805"
       gradientUnits="userSpaceOnUse"
       x1="-243.82657"
       y1="-154.52367"
       x2="336.36136"
       y2="-154.52367" />
    <linearGradient
       inkscape:collect="always"
       xlink:href="#linearGradient3685"
       id="linearGradient3807"
       gradientUnits="userSpaceOnUse"
       x1="-243.82657"
       y1="-154.52367"
       x2="336.36136"
       y2="-154.52367" />
    <linearGradient
       inkscape:collect="always"
       xlink:href="#linearGradient3685"
       id="linearGradient3809"
       gradientUnits="userSpaceOnUse"
       x1="-243.82657"
       y1="-154.52367"
       x2="336.36136"
       y2="-154.52367" />
    <linearGradient
       inkscape:collect="always"
       xlink:href="#linearGradient3685"
       id="linearGradient3811"
       gradientUnits="userSpaceOnUse"
       x1="-243.82657"
       y1="-154.52367"
       x2="336.36136"
       y2="-154.52367" />
    <linearGradient
       inkscape:collect="always"
       xlink:href="#linearGradient3685"
       id="linearGradient3813"
       gradientUnits="userSpaceOnUse"
       x1="-243.82657"
       y1="-154.52367"
       x2="336.36136"
       y2="-154.52367" />
    <linearGradient
       inkscape:collect="always"
       xlink:href="#linearGradient3685"
       id="linearGradient3815"
       gradientUnits="userSpaceOnUse"
       x1="-243.82657"
       y1="-154.52367"
       x2="336.36136"
       y2="-154.52367" />
    <linearGradient
       inkscape:collect="always"
       xlink:href="#linearGradient3685"
       id="linearGradient3817"
       gradientUnits="userSpaceOnUse"
       x1="-243.82657"
       y1="-154.52367"
       x2="336.36136"
       y2="-154.52367" />
    <inkscape:perspective
       id="perspective3827"
       inkscape:persp3d-origin="0.5 : 0.33333333 : 1"
       inkscape:vp_z="1 : 0.5 : 1"
       inkscape:vp_y="0 : 1000 : 0"
       inkscape:vp_x="0 : 0.5 : 1"
       sodipodi:type="inkscape:persp3d" />
    <linearGradient
       inkscape:collect="always"
       xlink:href="#linearGradient3685"
       id="linearGradient3898"
       x1="2.3319993"
       y1="15.452616"
       x2="100.16102"
       y2="15.452616"
       gradientUnits="userSpaceOnUse" />
    <linearGradient
       inkscape:collect="always"
       xlink:href="#linearGradient3685"
       id="linearGradient3900"
       gradientUnits="userSpaceOnUse"
       x1="2.3319993"
       y1="15.452616"
       x2="100.16102"
       y2="15.452616" />
    <linearGradient
       inkscape:collect="always"
       xlink:href="#linearGradient3685"
       id="linearGradient3902"
       gradientUnits="userSpaceOnUse"
       x1="2.3319993"
       y1="15.452616"
       x2="100.16102"
       y2="15.452616" />
    <linearGradient
       inkscape:collect="always"
       xlink:href="#linearGradient3685"
       id="linearGradient3904"
       gradientUnits="userSpaceOnUse"
       x1="2.3319993"
       y1="15.452616"
       x2="100.16102"
       y2="15.452616" />
    <linearGradient
       inkscape:collect="always"
       xlink:href="#linearGradient3685"
       id="linearGradient3906"
       gradientUnits="userSpaceOnUse"
       x1="2.3319993"
       y1="15.452616"
       x2="100.16102"
       y2="15.452616" />
    <linearGradient
       inkscape:collect="always"
       xlink:href="#linearGradient3685"
       id="linearGradient3908"
       gradientUnits="userSpaceOnUse"
       x1="2.3319993"
       y1="15.452616"
       x2="100.16102"
       y2="15.452616" />
    <linearGradient
       inkscape:collect="always"
       xlink:href="#linearGradient3685"
       id="linearGradient3910"
       gradientUnits="userSpaceOnUse"
       x1="2.3319993"
       y1="15.452616"
       x2="100.16102"
       y2="15.452616" />
    <linearGradient
       inkscape:collect="always"
       xlink:href="#linearGradient3685"
       id="linearGradient3912"
       gradientUnits="userSpaceOnUse"
       x1="2.3319993"
       y1="15.452616"
       x2="100.16102"
       y2="15.452616" />
    <linearGradient
       inkscape:collect="always"
       xlink:href="#linearGradient3685"
       id="linearGradient3914"
       gradientUnits="userSpaceOnUse"
       x1="2.3319993"
       y1="15.452616"
       x2="100.16102"
       y2="15.452616" />
    <linearGradient
       inkscape:collect="always"
       xlink:href="#linearGradient3685"
       id="linearGradient3916"
       gradientUnits="userSpaceOnUse"
       x1="2.3319993"
       y1="15.452616"
       x2="100.16102"
       y2="15.452616" />
    <linearGradient
       inkscape:collect="always"
       xlink:href="#linearGradient3685"
       id="linearGradient3919"
       gradientUnits="userSpaceOnUse"
       x1="2.3319993"
       y1="15.452616"
       x2="100.16102"
       y2="15.452616" />
    <linearGradient
       inkscape:collect="always"
       xlink:href="#linearGradient3685"
       id="linearGradient3922"
       gradientUnits="userSpaceOnUse"
       x1="2.3319993"
       y1="15.452616"
       x2="100.16102"
       y2="15.452616"
       gradientTransform="translate(2,0)" />
    <linearGradient
       inkscape:collect="always"
       xlink:href="#linearGradient3685"
       id="linearGradient3925"
       gradientUnits="userSpaceOnUse"
       x1="2.3319993"
       y1="15.452616"
       x2="100.16102"
       y2="15.452616" />
    <linearGradient
       inkscape:collect="always"
       xlink:href="#linearGradient3685"
       id="linearGradient3928"
       gradientUnits="userSpaceOnUse"
       x1="2.3319993"
       y1="15.452616"
       x2="100.16102"
       y2="15.452616" />
    <linearGradient
       inkscape:collect="always"
       xlink:href="#linearGradient3685"
       id="linearGradient3931"
       gradientUnits="userSpaceOnUse"
       x1="2.3319993"
       y1="15.452616"
       x2="100.16102"
       y2="15.452616" />
    <linearGradient
       inkscape:collect="always"
       xlink:href="#linearGradient3685"
       id="linearGradient3967"
       x1="2.3315425"
       y1="44.242729"
       x2="107.66845"
       y2="44.242729"
       gradientUnits="userSpaceOnUse" />
    <inkscape:perspective
       id="perspective4645"
       inkscape:persp3d-origin="0.5 : 0.33333333 : 1"
       inkscape:vp_z="1 : 0.5 : 1"
       inkscape:vp_y="0 : 1000 : 0"
       inkscape:vp_x="0 : 0.5 : 1"
       sodipodi:type="inkscape:persp3d" />
    <linearGradient
       inkscape:collect="always"
       xlink:href="#linearGradient3685"
       id="linearGradient4659"
       gradientUnits="userSpaceOnUse"
       x1="2.3315425"
       y1="44.242729"
       x2="107.66845"
       y2="44.242729" />
    <linearGradient
       inkscape:collect="always"
       xlink:href="#linearGradient3685"
       id="linearGradient4661"
       gradientUnits="userSpaceOnUse"
       x1="2.3315425"
       y1="44.242729"
       x2="107.66845"
       y2="44.242729" />
    <linearGradient
       inkscape:collect="always"
       xlink:href="#linearGradient3685"
       id="linearGradient4663"
       gradientUnits="userSpaceOnUse"
       x1="2.3315425"
       y1="44.242729"
       x2="107.66845"
       y2="44.242729" />
    <linearGradient
       inkscape:collect="always"
       xlink:href="#linearGradient3685"
       id="linearGradient4665"
       gradientUnits="userSpaceOnUse"
       x1="2.3315425"
       y1="44.242729"
       x2="107.66845"
       y2="44.242729" />
    <linearGradient
       inkscape:collect="always"
       xlink:href="#linearGradient3685"
       id="linearGradient4667"
       gradientUnits="userSpaceOnUse"
       x1="2.3315425"
       y1="44.242729"
       x2="107.66845"
       y2="44.242729" />
    <linearGradient
       inkscape:collect="always"
       xlink:href="#linearGradient3685"
       id="linearGradient4669"
       gradientUnits="userSpaceOnUse"
       x1="2.3315425"
       y1="44.242729"
       x2="107.66845"
       y2="44.242729" />
    <linearGradient
       inkscape:collect="always"
       xlink:href="#linearGradient3685"
       id="linearGradient4671"
       gradientUnits="userSpaceOnUse"
       x1="2.3315425"
       y1="44.242729"
       x2="107.66845"
       y2="44.242729" />
    <linearGradient
       inkscape:collect="always"
       xlink:href="#linearGradient3685"
       id="linearGradient4673"
       gradientUnits="userSpaceOnUse"
       x1="2.3315425"
       y1="44.242729"
       x2="107.66845"
       y2="44.242729" />
    <linearGradient
       inkscape:collect="always"
       xlink:href="#linearGradient3685"
       id="linearGradient4675"
       gradientUnits="userSpaceOnUse"
       x1="2.3315425"
       y1="44.242729"
       x2="107.66845"
       y2="44.242729" />
    <linearGradient
       inkscape:collect="always"
       xlink:href="#linearGradient3685"
       id="linearGradient4677"
       gradientUnits="userSpaceOnUse"
       x1="2.3315425"
       y1="44.242729"
       x2="107.66845"
       y2="44.242729" />
    <linearGradient
       inkscape:collect="always"
       xlink:href="#linearGradient3685"
       id="linearGradient4680"
       gradientUnits="userSpaceOnUse"
       x1="2.3315425"
       y1="44.242729"
       x2="107.66845"
       y2="44.242729" />
    <linearGradient
       inkscape:collect="always"
       xlink:href="#linearGradient3685"
       id="linearGradient4683"
       gradientUnits="userSpaceOnUse"
       x1="2.3315425"
       y1="44.242729"
       x2="107.66845"
       y2="44.242729" />
    <linearGradient
       inkscape:collect="always"
       xlink:href="#linearGradient3685"
       id="linearGradient4686"
       gradientUnits="userSpaceOnUse"
       x1="2.3315425"
       y1="44.242729"
       x2="107.66845"
       y2="44.242729" />
    <linearGradient
       inkscape:collect="always"
       xlink:href="#linearGradient3685"
       id="linearGradient4689"
       gradientUnits="userSpaceOnUse"
       x1="2.3315425"
       y1="44.242729"
       x2="107.66845"
       y2="44.242729" />
    <linearGradient
       inkscape:collect="always"
       xlink:href="#linearGradient3685"
       id="linearGradient4692"
       gradientUnits="userSpaceOnUse"
       x1="2.3315425"
       y1="44.242729"
       x2="107.66845"
       y2="44.242729" />
    <linearGradient
       inkscape:collect="always"
       xlink:href="#linearGradient3685"
       id="linearGradient4699"
       gradientUnits="userSpaceOnUse"
       x1="2.3315425"
       y1="44.242729"
       x2="107.66845"
       y2="44.242729" />
    <linearGradient
       inkscape:collect="always"
       xlink:href="#linearGradient3685"
       id="linearGradient5232"
       x1="2.3315425"
       y1="44.71685"
       x2="107.66845"
       y2="44.71685"
       gradientUnits="userSpaceOnUse" />
  </defs>
  <g
     id="g5215"
     style="fill-opacity:1.0;fill:url(#linearGradient5232)">
    <path
       style="fill:url(#linearGradient5232);fill-opacity:1.0;fill-rule:evenodd;stroke:#000000;stroke-width:0;stroke-linecap:butt;stroke-linejoin:miter;stroke-miterlimit:4;stroke-opacity:0;stroke-dasharray:none"
       id="path2865"
       d="m 6.701667,33.723491 c -0.945159,0.0018 -2.352725,0.191463 -3.46875,1.21875 -0.72412,0.66654 -0.69474,1.48235 -0.875,2.25 l 0,12.15625 0,20.75 c -0.01194,0.06295 -0.37681,2.89462 2.03125,3.78125 0.59571,0.21934 2.24839,0.49535 3.375,0.46875 3.61617,-0.08537 3.57637,-0.88142 4,-1.09375 1.02958,-0.51605 1.09375,-3.28125 1.09375,-3.28125 l 0,-8.40625 0,-10.59375 c 0,0 0.37812,-1.68285 1.03125,-3 0.42134,-0.8497 1.11017,-1.46893 1.34375,-1.625 1.13747,-0.93616 2.25046,-1.65185 3.75,-1.875 1.13026,-0.31268 2.92421,0.31341 4.625,-0.78125 1.30071,-0.83717 1.19921,-1.6415 1.59375,-4.5625 0.39454,-2.921 -0.48625,-4.95703 -1.71875,-5.125 -2.4994,-0.49386 -7.43063,0.66563 -9.65625,2.4375 -0.62768,0.23675 -2,2.08302 -2,1.28125 -0.22623,-0.60334 -0.88872,-2.75616 -1.84375,-3.28125 -1.13946,-0.62647 -1.9482,-0.603 -2.25,-0.625 -0.07204,-0.0052 -0.464154,-0.09485 -1.03125,-0.09375 z m 43.5625,0 c -1.673777,0.06714 -3.335301,0.417172 -4.96875,0.78125 -0.937918,0.209052 -1.886285,0.457506 -2.71875,0.9375 -0.994164,0.573228 -2.59375,2.25 -2.59375,2.25 0,0 -0.914687,0.07964 -1.21875,-0.1875 -0.574555,-0.504794 -0.135215,-1.658882 -0.65625,-2.21875 -0.970954,-1.043319 -2.453531,-1.427851 -3.875,-1.53125 -1.110933,-0.08081 -3.225887,0.604456 -3.84375,1.53125 -0.4436,0.665399 -0.9375,2 -0.9375,2 l 0,31.875 c 0,0 -0.232419,2.498162 1.34375,4.46875 0.766997,0.958929 2.304201,1.015805 3.53125,1.0625 1.54338,0.05873 3.768095,0.163324 4.5,-1 1.310948,-2.083683 1.15625,-4.53125 1.15625,-4.53125 l 0,-21.34375 c 0,0 0.510324,-1.611406 1.375,-2.34375 0.827259,-0.700653 2.56982,-1.581357 3.59375,-1.9375 0.951046,-0.330793 2.001438,-0.504562 3,-0.375 0.808768,0.104937 1.644308,0.360122 2.25,0.90625 0.486431,0.438595 1.00392,1.094145 1.28125,1.6875 0.303451,0.649242 0.46875,2.0625 0.46875,2.0625 l 0.0625,21.34375 c 0,0 0.01232,3.315802 1,4.3125 1.11329,1.123458 3.07598,1.284483 4.65625,1.21875 1.268598,-0.05277 2.375656,0.200728 3.78125,-1.59375 0.915009,-1.168164 1.059768,-3.907616 1,-3.9375 l 0,-21.34375 c 0,0 -0.19308,-3.794892 -0.59375,-5.65625 -0.233374,-1.084165 -0.556794,-2.231765 -1.0625,-3.21875 -0.410713,-0.801587 -1.001278,-1.506745 -1.65625,-2.125 -0.765074,-0.722185 -1.640586,-1.335864 -2.59375,-1.78125 -1.438123,-0.671994 -3.011393,-1.155073 -4.59375,-1.28125 -0.556079,-0.04434 -1.129574,-0.05363 -1.6875,-0.03125 z m 39.562498,0 -3.874998,0.0625 c -10.83897,0.63932 -18.48359,12.19906 -18.3125,24.6875 0.003,0.20776 0.03235,1.69049 0.03125,1.8125 -0.12199,13.72468 6.50059,26.194147 22.718744,25.999997 1.1502,-0.0138 5.53983,-0.40825 5.3125,-0.40625 5.824699,-1.29324 9.519819,-2.88758 10.656249,-7.34375 0.62167,-2.437677 -0.61275,-4.156247 -1.9375,-4.156247 -3.86004,0 -5.133509,2.8125 -11.874999,2.8125 -7.948014,0 -13.129034,-4.74581 -13.843744,-9.25 -0.0429,-0.2703 -0.49999,-3.69494 -0.5,-3.9375 0,-0.54525 0.43781,-0.99999 1,-1 0,0 21.804313,0.004 21.999993,-0.03125 4.01901,-0.72605 5.45561,-1.30864 6.1875,-4.8125 0.37911,-1.81496 0.17455,-3.01419 0.25,-4.21875 0.52983,-8.4591 -6.15485,-20.21875 -17.812495,-20.21875 z m -2.5625,7.5 1.96875,0 c 5.038156,0.8256 7.541156,3.89462 8.062496,8.8125 0.0648,1.05532 0.125,3.84375 0.125,3.84375 0,0.48848 -0.67428,0.5 -1.25,0.5 l -17.124994,-0.03125 c -0.52932,0 -0.65625,-0.83201 -0.65625,-1.34375 0,0 -0.0225,-0.52957 0,-1.0625 0.25254,-5.96965 4.58947,-10.43465 8.874998,-10.71875 z" />
    <g
       transform="matrix(0.16402225,0,0,0.16402225,42.324982,41.27183)"
       style="fill:url(#linearGradient5232);fill-opacity:1.0"
       id="g3718">
      <path
         style="fill:url(#linearGradient5232);fill-opacity:1.0;fill-rule:evenodd;stroke:#000000;stroke-width:0;stroke-linecap:butt;stroke-linejoin:round;stroke-miterlimit:4;stroke-opacity:1;stroke-dasharray:none"
         d="m -242.42347,-80.15093 c -0.0623,-0.204866 -0.33328,-2.652079 -0.60215,-5.438252 -0.26887,-2.786173 -0.55908,-5.476192 -0.64491,-5.977819 l -0.15604,-0.91205 5.27204,-2.357356 c 2.89962,-1.296544 5.31671,-2.495248 5.37131,-2.663786 0.0546,-0.168539 0.30478,-13.648777 0.55597,-29.956077 0.25119,-16.30731 0.52094,-31.53125 0.59943,-33.83099 l 0.14273,-4.18135 -5.27769,-1.65811 c -4.14862,-1.30339 -5.30095,-1.77727 -5.38641,-2.2151 -0.0598,-0.30634 -0.0122,-3.38921 0.10583,-6.85083 l 0.21454,-6.29384 14.04853,-3.22419 c 15.76991,-3.61925 17.68197,-3.87278 19.11692,-2.53482 1.20968,1.12792 1.61629,2.13342 2.05429,5.08004 0.22,1.48003 0.46964,2.7606 0.55476,2.84573 0.0851,0.0851 2.20499,-1.20401 4.71081,-2.86474 5.3327,-3.53424 10.19485,-5.99817 13.53657,-6.85975 3.9474,-1.01773 9.82701,-0.75689 13.37498,0.59337 l 0.85955,0.32712 -0.21859,11.24113 c -0.12022,6.18261 -0.25564,11.28027 -0.30093,11.32813 -0.0453,0.0479 -2.05438,0.42121 -4.46465,0.82967 -17.2285,2.91966 -21.68603,5.5816 -23.91354,14.28062 -0.49354,1.9274 -0.53413,4.06623 -0.53413,28.14649 l 0,26.06058 5.28447,2.268174 c 2.90646,1.247496 5.37129,2.354992 5.4774,2.461099 0.10611,0.106107 -0.0462,3.013626 -0.33848,6.461156 l -0.53141,6.268234 -24.39895,0 c -19.26009,0 -24.42282,-0.07845 -24.51225,-0.372483 z"
         id="path3674" />
      <path
         style="fill:url(#linearGradient5232);fill-opacity:1.0;fill-rule:evenodd;stroke:#000000;stroke-width:0;stroke-linecap:butt;stroke-linejoin:round;stroke-miterlimit:4;stroke-opacity:1;stroke-dasharray:none"
         d="m -141.72107,-80.095538 c -4.75076,-0.636347 -9.22831,-2.305401 -13.10558,-4.885245 -6.79708,-4.522618 -11.57427,-11.615871 -13.14204,-19.513487 -0.61347,-3.0904 -0.45177,-11.47873 0.30192,-15.66134 1.45713,-8.08644 5.03416,-14.52268 10.5298,-18.94648 8.51253,-6.85232 20.78606,-10.21094 39.81623,-10.89561 l 5.62718,-0.20246 -0.16115,-4.04885 c -0.24945,-6.26756 -1.1801,-9.65757 -3.49241,-12.72157 -3.69191,-4.89208 -11.05473,-6.21309 -22.13367,-3.97115 -3.16461,0.6404 -10.83578,2.68358 -15.53586,4.13792 -1.62359,0.50238 -3.0025,0.86289 -3.06426,0.80113 -0.23009,-0.23009 -6.63353,-19.67493 -6.51744,-19.79102 0.2543,-0.25431 8.86531,-2.80189 13.27863,-3.9285 19.40099,-4.95262 33.71894,-5.41343 44.33255,-1.42679 8.24271,3.09608 13.842148,9.23002 16.281968,17.83618 0.934241,3.29541 1.315718,6.09485 1.526454,11.20178 0.173344,4.20079 1.330133,56.61818 1.330133,60.27214 l 0,2.016906 4.991273,1.61421 4.991272,1.61421 0.0802,6.61964 c 0.0566,4.67223 -0.01643,6.61964 -0.24825,6.61964 -0.180648,0 -5.848677,0.740576 -12.595626,1.645725 -6.746944,0.905146 -13.219894,1.652597 -14.384314,1.661 -4.32715,0.03123 -6.0982,-1.694059 -6.9887,-6.808065 -0.2069,-1.188221 -0.51107,-2.160402 -0.67594,-2.160402 -0.16486,0 -1.27196,0.605955 -2.46022,1.346568 -2.8225,1.759189 -8.23989,4.332806 -11.54078,5.482631 -5.30365,1.847462 -12.37921,2.715764 -17.04137,2.091289 l 0,0 z m 13.70738,-17.569421 c 4.17809,-0.587903 10.35447,-3.175811 14.26826,-5.978411 l 1.67401,-1.19873 0,-5.29944 c 0,-2.91469 0.0889,-7.95472 0.19762,-11.20007 l 0.19762,-5.90063 -5.93386,0.16778 c -6.65457,0.18816 -10.31977,0.71013 -14.26307,2.03126 -3.3758,1.131 -5.33364,2.24643 -7.12477,4.05917 -2.83784,2.87208 -3.81812,6.26729 -3.21193,11.12458 0.76136,6.1007 2.67955,9.48335 6.39859,11.28371 2.2784,1.102955 4.54789,1.368041 7.79753,0.910781 l 0,0 z"
         id="path3676" />
      <path
         style="fill:url(#linearGradient5232);fill-opacity:1.0;fill-rule:evenodd;stroke:#000000;stroke-width:0;stroke-linecap:butt;stroke-linejoin:round;stroke-miterlimit:4;stroke-opacity:1;stroke-dasharray:none"
         d="m -34.68667,-76.849532 c -14.234221,-1.472494 -23.368767,-11.199986 -27.23172,-28.999398 -1.554309,-7.16182 -1.822061,-10.53621 -1.820643,-22.94495 0.0013,-11.80596 0.26548,-16.40925 1.357822,-23.66412 2.755904,-18.30356 9.684437,-29.4446 21.222912,-34.12631 5.482529,-2.22452 9.647833,-2.84734 17.497126,-2.61624 6.015794,0.17711 10.084393,0.76511 16.949085,2.44949 2.230732,0.54736 4.0946163,0.95645 4.1419694,0.90909 0.047353,-0.0473 0.1150942,-4.54839 0.1505367,-10.00231 l 0.064437,-9.91621 -2.6115321,-0.69541 c -3.7504,-0.99868 -5.410373,-1.79532 -6.734752,-3.2321 -1.468498,-1.59313 -1.570117,-2.25686 -1.297573,-8.47496 l 0.214333,-4.88993 2.085904,-0.7112 c 6.262772,-2.13532 15.0608624,-4.35224 22.724029,-5.72593 4.584313,-0.82178 13.493838,-1.89796 13.733169,-1.65883 0.107322,0.10723 0.349475,28.77938 0.538115,63.7159 0.188644,34.93651 0.356261,65.07873 0.372483,66.98271 l 0.0295,3.461785 2.607381,0.975867 c 3.814741,1.427745 5.898116,2.544932 6.609839,3.544453 0.850596,1.194553 1.160288,3.23778 1.272384,8.394766 l 0.09441,4.343357 -8.644356,0.819642 c -15.35608,1.45603 -21.4394002,1.944099 -22.2014676,1.781243 -2.0537491,-0.438895 -2.9210803,-1.531283 -4.3485186,-5.476865 -0.4447,-1.229194 -0.8958097,-2.335713 -1.002465,-2.45893 -0.1066552,-0.123217 -1.8773113,0.501946 -3.9347912,1.389251 -12.1257166,5.229316 -23.5648906,7.681932 -31.8376216,6.826139 z m 20.859048,-24.483198 c 2.875438,-0.83664 5.758206,-2.02205 9.014089,-3.70663 l 2.9053673,-1.50322 0.067047,-26.76994 c 0.036876,-14.72346 0.070399,-27.93854 0.074497,-29.36684 l 0.00745,-2.59691 -2.3838913,-0.67238 c -7.819926,-2.20564 -15.073842,-2.98867 -19.040428,-2.05532 -4.164622,0.97994 -7.321046,3.41895 -9.317385,7.19967 -1.582189,2.99639 -3.347199,10.19352 -4.488603,18.30304 -0.755228,5.3658 -0.733995,19.15501 0.03602,23.39193 1.881049,10.35027 6.040249,16.28825 12.729788,18.17398 2.1302,0.60048 7.69793,0.38766 10.396051,-0.39738 l 0,0 z"
         id="path3678" />
    </g>
    <path
       id="path3747"
       d="m 50.562065,28.239373 c -0.02336,-0.135502 -0.270438,-2.132386 -0.264718,-2.139431 0.0045,-0.0056 0.437673,-0.189507 0.962581,-0.40878 l 0.954378,-0.398677 0.02424,-1.608479 c 0.01333,-0.884665 0.03167,-3.348862 0.04075,-5.475996 l 0.01651,-3.867515 -0.825242,-0.326478 -0.825243,-0.326476 0,-1.111302 c 0,-1.022841 0.0057,-1.113052 0.07132,-1.133281 0.424518,-0.13083 3.067682,-0.687947 3.963201,-0.835348 0.71267,-0.117306 1.845185,-0.248489 2.145227,-0.248489 l 0.136925,0 0.0011,7.467934 0.0011,7.467935 0.926056,0.382731 c 0.509331,0.210502 0.941554,0.39655 0.960495,0.41344 0.02935,0.02617 -0.04263,1.157134 -0.122459,1.924072 l -0.02439,0.234328 -4.070008,0 c -2.238503,0 -4.070797,-0.0046 -4.071763,-0.01019 z"
       style="fill:url(#linearGradient5232);fill-opacity:1.0;fill-rule:evenodd;stroke:none" />
    <path
       id="path3749"
       d="M 53.92592,8.8331185 C 52.970729,8.6231421 52.119424,7.860888 51.808214,6.936936 51.655888,6.4846971 51.62069,5.8361728 51.723412,5.3744584 c 0.287179,-1.2908158 1.456963,-2.2242238 2.793423,-2.2289607 0.49796,-0.00177 0.887314,0.089007 1.301905,0.3035166 0.592126,0.3063673 0.993953,0.7151157 1.289466,1.3116777 0.237618,0.4796864 0.31629,0.8562126 0.289508,1.3855927 -0.03821,0.7552766 -0.306317,1.3574793 -0.843541,1.8947031 -0.548301,0.5483017 -1.147739,0.8109571 -1.91508,0.8391296 -0.288332,0.010579 -0.520951,-0.00474 -0.713173,-0.046999 z"
       style="fill:url(#linearGradient5232);fill-opacity:1.0;fill-rule:evenodd;stroke:none" />
    <path
       id="path3753"
       d="m 67.435443,28.628074 c -1.652904,-0.279366 -3.01888,-0.978255 -4.178534,-2.137909 -1.169808,-1.169808 -1.887596,-2.592907 -2.138415,-4.239662 -0.07352,-0.4827 -0.08071,-0.744264 -0.08096,-2.942983 -3.28e-4,-2.600156 0.01781,-2.900031 0.224586,-3.720603 0.622423,-2.470079 2.427783,-4.448044 4.848858,-5.312446 0.787338,-0.2811051 1.538852,-0.404399 2.485917,-0.4078418 0.775949,-0.00282 1.154975,0.039462 1.833872,0.2045718 2.711442,0.659435 4.856858,2.779262 5.54158,5.475479 0.238664,0.939781 0.244801,1.033167 0.245062,3.728874 1.64e-4,2.214666 -0.0079,2.534829 -0.07402,2.934196 -0.288719,1.74282 -0.96723,3.085539 -2.163931,4.28224 -1.181798,1.181799 -2.511328,1.858181 -4.200735,2.137071 -0.636304,0.105042 -1.718643,0.104586 -2.343281,-9.85e-4 l 0,0 z m 1.64794,-3.427072 c 0.110671,-0.0215 0.315568,-0.09539 0.455326,-0.164195 1.017266,-0.500799 1.750153,-1.760393 1.93115,-3.319016 0.03194,-0.275055 0.04158,-1.070061 0.03012,-2.48299 -0.01584,-1.952329 -0.02226,-2.102472 -0.105732,-2.475478 -0.412413,-1.84287 -1.505336,-3.009014 -2.816098,-3.004765 -0.602925,0.002 -1.079067,0.199886 -1.558965,0.648057 -0.774103,0.722927 -1.227385,1.779817 -1.339212,3.122564 -0.06949,0.834414 -0.0281,4.03976 0.05847,4.528553 0.254397,1.436252 0.946825,2.513096 1.922493,2.989813 0.464203,0.226812 0.847288,0.269218 1.422447,0.157457 l 0,0 z"
       style="fill:url(#linearGradient5232);fill-opacity:1.0;fill-rule:evenodd;stroke:none" />
    <path
       sodipodi:nodetypes="cscccssccssccccccccccccssssssssc"
       id="path4703"
       d="m 90.184345,28.597138 c -2.084262,-0.186005 -4.254744,-0.805517 -5.815097,-1.659782 -0.943213,-0.516393 -0.970055,-0.259011 0.235717,-2.260276 l 1.048052,-1.739491 0.513925,0.301276 c 1.859798,1.090263 4.364765,1.602785 5.906482,1.208481 0.68651,-0.17558 1.034218,-0.359159 1.481507,-0.782186 0.437467,-0.413738 0.649406,-0.757614 0.866578,-1.406041 0.335291,-1.295965 0.142292,-2.646793 -0.03758,-3.942391 -0.247049,-0.807117 -0.544096,-1.355749 -1.001795,-1.850268 -0.669758,-0.723638 -1.517333,-0.996285 -2.469198,-0.79429 -0.998537,0.211899 -1.984971,0.830118 -3.044696,1.908173 l -0.551863,0.56141 -1.854412,0 -1.854413,0 -0.0011,-0.25967 c -0.0017,-0.404774 0.764052,-13.8037589 0.80336,-14.0568055 l 0.03496,-0.2250473 6.402056,0 6.402057,0 0,2.111983 0,2.1119831 -4.466324,0 c -4.207982,0 -4.466249,0.00701 -4.465007,0.1211793 7.25e-4,0.066649 -0.06656,1.2821368 -0.149516,2.7010854 -0.08296,1.418948 -0.131672,2.599066 -0.108253,2.622485 0.02342,0.02342 0.472416,-0.130686 0.997771,-0.342456 2.583954,-1.041588 4.49574,-1.211135 6.196439,-0.549531 2.496673,0.971253 3.902003,4.031143 3.776615,8.223004 -0.05184,1.733164 -0.293221,2.898231 -0.848189,4.093965 -0.983613,2.119291 -2.67417,3.362066 -5.157502,3.79142 -0.782691,0.135324 -2.027798,0.184325 -2.840574,0.11179 z"
       style="fill:url(#linearGradient5232);fill-opacity:1.0;fill-rule:evenodd;stroke:none" />
  </g>
</svg>
