<?xml version="1.0" encoding="UTF-8" standalone="no"?>
<!-- Created with Inkscape (http://www.inkscape.org/) -->

<svg
   xmlns:svg="http://www.w3.org/2000/svg"
   xmlns="http://www.w3.org/2000/svg"
   xmlns:xlink="http://www.w3.org/1999/xlink"
   version="1.0"
   width="110"
   height="60"
   id="svg5098">
  <defs
     id="defs5100">
    <linearGradient
       id="linearGradient3685">
      <stop
         id="stop3687"
         style="stop-color:#9a213d;stop-opacity:1"
         offset="0" />
      <stop
         id="stop3689"
         style="stop-color:#f20408;stop-opacity:1"
         offset="1" />
    </linearGradient>
    <linearGradient
       x1="453.98703"
       y1="398.54263"
       x2="564.04407"
       y2="338.61118"
       id="linearGradient3665"
       xlink:href="#linearGradient3685"
       gradientUnits="userSpaceOnUse"
       gradientTransform="translate(-453.98702,-338.55997)" />
  </defs>
  <path
     d="m 6.701667,3.7234909 c -0.945159,0.0018 -2.352725,0.191463 -3.46875,1.21875 -0.72412,0.6665401 -0.69474,1.48235 -0.875,2.25 l 0,12.1562501 0,20.75 c -0.01194,0.06295 -0.37681,2.89462 2.03125,3.78125 0.59571,0.21934 2.24839,0.49535 3.375,0.46875 3.61617,-0.08537 3.57637,-0.88142 4,-1.09375 1.02958,-0.51605 1.09375,-3.28125 1.09375,-3.28125 l 0,-8.40625 0,-10.59375 c 0,0 0.37812,-1.68285 1.03125,-3 0.42134,-0.8497 1.11017,-1.46893 1.34375,-1.625 1.13747,-0.93616 2.25046,-1.65185 3.75,-1.875 1.13026,-0.31268 2.92421,0.31341 4.625,-0.78125 1.30071,-0.83717 1.19921,-1.6415 1.59375,-4.5625001 0.39454,-2.9209999 -0.48625,-4.95703 -1.71875,-5.125 -2.4994,-0.49386 -7.43063,0.66563 -9.65625,2.4375 -0.62768,0.23675 -2,2.08302 -2,1.28125 -0.22623,-0.60334 -0.88872,-2.75616 -1.84375,-3.28125 -1.13946,-0.62647 -1.9482,-0.603 -2.25,-0.625 -0.07204,-0.0052 -0.464154,-0.09485 -1.03125,-0.09375 z m 43.5625,0 c -1.673777,0.06714 -3.335301,0.417172 -4.96875,0.78125 -0.937918,0.209052 -1.886285,0.457506 -2.71875,0.9375001 -0.994164,0.573228 -2.59375,2.2499999 -2.59375,2.2499999 0,0 -0.914687,0.07964 -1.21875,-0.1875 -0.574555,-0.504794 -0.135215,-1.6588819 -0.65625,-2.2187499 -0.970954,-1.0433191 -2.453531,-1.4278511 -3.875,-1.5312501 -1.110933,-0.08081 -3.225887,0.604456 -3.84375,1.5312501 -0.4436,0.665399 -0.9375,1.9999999 -0.9375,1.9999999 l 0,31.8750001 c 0,0 -0.232419,2.498162 1.34375,4.46875 0.766997,0.958929 2.304201,1.015805 3.53125,1.0625 1.54338,0.05873 3.768095,0.163324 4.5,-1 1.310948,-2.083683 1.15625,-4.53125 1.15625,-4.53125 l 0,-21.34375 c 0,0 0.510324,-1.611406 1.375,-2.34375 0.827259,-0.700653 2.56982,-1.581357 3.59375,-1.9375 0.951046,-0.330793 2.001438,-0.504562 3,-0.375 0.808768,0.104937 1.644308,0.360122 2.25,0.90625 0.486431,0.438595 1.00392,1.094145 1.28125,1.6875 0.303451,0.649242 0.46875,2.0625 0.46875,2.0625 l 0.0625,21.34375 c 0,0 0.01232,3.315802 1,4.3125 1.11329,1.123458 3.07598,1.284483 4.65625,1.21875 1.268598,-0.05277 2.375656,0.200728 3.78125,-1.59375 0.915009,-1.168164 1.059768,-3.907616 1,-3.9375 l 0,-21.34375 c 0,0 -0.19308,-3.794892 -0.59375,-5.65625 -0.233374,-1.084165 -0.556794,-2.2317651 -1.0625,-3.2187501 -0.410713,-0.801587 -1.001278,-1.506745 -1.65625,-2.125 C 58.374093,6.095056 57.498581,5.481377 56.545417,5.035991 55.107294,4.3639969 53.534024,3.8809179 51.951667,3.7547409 c -0.556079,-0.04434 -1.129574,-0.05363 -1.6875,-0.03125 z m 39.562498,0 -3.874998,0.0625 c -10.83897,0.63932 -18.48359,12.1990601 -18.3125,24.6875001 0.003,0.20776 0.03235,1.69049 0.03125,1.8125 -0.12199,13.72468 6.50059,26.194147 22.718744,25.999997 1.1502,-0.0138 5.53983,-0.40825 5.3125,-0.40625 5.824699,-1.29324 9.519819,-2.88758 10.656249,-7.34375 0.62167,-2.437677 -0.61275,-4.156247 -1.9375,-4.156247 -3.86004,0 -5.133509,2.8125 -11.874999,2.8125 -7.948014,0 -13.129034,-4.74581 -13.843744,-9.25 -0.0429,-0.2703 -0.49999,-3.69494 -0.5,-3.9375 0,-0.54525 0.43781,-0.99999 1,-1 0,0 21.804313,0.004 21.999993,-0.03125 4.01901,-0.72605 5.45561,-1.30864 6.1875,-4.8125 0.37911,-1.81496 0.17455,-3.01419 0.25,-4.21875 0.52983,-8.4591 -6.15485,-20.2187501 -17.812495,-20.2187501 z m -2.5625,7.5000001 1.96875,0 c 5.038156,0.8256 7.541156,3.89462 8.062496,8.8125 0.0648,1.05532 0.125,3.84375 0.125,3.84375 0,0.48848 -0.67428,0.5 -1.25,0.5 l -17.124994,-0.03125 c -0.52932,0 -0.65625,-0.83201 -0.65625,-1.34375 0,0 -0.0225,-0.52957 0,-1.0625 0.25254,-5.96965 4.58947,-10.43465 8.874998,-10.71875 z"
     id="path2865"
     style="fill:url(#linearGradient3665);fill-opacity:1;fill-rule:evenodd;stroke:#000000;stroke-width:0;stroke-linecap:butt;stroke-linejoin:miter;stroke-miterlimit:4;stroke-opacity:0;stroke-dasharray:none" />
</svg>
